<?xml version="1.0" standalone="no"?>
<!DOCTYPE svg PUBLIC "-//W3C//DTD SVG 20010904//EN"
 "http://www.w3.org/TR/2001/REC-SVG-20010904/DTD/svg10.dtd">
<svg version="1.0" xmlns="http://www.w3.org/2000/svg"
 width="1000.000000pt" height="1000.000000pt" viewBox="0 0 1000.000000 1000.000000"
 preserveAspectRatio="xMidYMid meet">
<metadata>
Created by potrace 1.14, written by Peter Selinger 2001-2017
</metadata>
<g transform="translate(0.000000,1000.000000) scale(0.100000,-0.100000)"
fill="#000000" stroke="none">
<path d="M4550 9984 c-1026 -93 -1966 -485 -2770 -1155 -160 -133 -476 -449
-609 -609 -678 -814 -1064 -1754 -1157 -2816 -22 -254 -15 -722 15 -969 106
-868 403 -1644 894 -2332 710 -998 1764 -1704 2947 -1977 421 -97 782 -132
1240 -123 381 8 675 43 1020 123 1998 462 3523 2117 3819 4144 79 543 67 1143
-35 1675 -160 832 -530 1609 -1085 2275 -133 160 -449 476 -609 609 -726 605
-1569 985 -2482 1121 -337 50 -853 65 -1188 34z"/>
</g>
</svg>
