<?xml version="1.0" standalone="no"?>
<!DOCTYPE svg PUBLIC "-//W3C//DTD SVG 20010904//EN"
 "http://www.w3.org/TR/2001/REC-SVG-20010904/DTD/svg10.dtd">
<svg version="1.0" xmlns="http://www.w3.org/2000/svg"
 width="256.000000pt" height="256.000000pt" viewBox="0 0 256.000000 256.000000"
 preserveAspectRatio="xMidYMid meet">
<metadata>
Created by potrace 1.14, written by Peter Selinger 2001-2017
</metadata>
<g transform="translate(0.000000,256.000000) scale(0.100000,-0.100000)"
fill="#000000" stroke="none">
<path d="M1256 1963 c-11 -3 -26 -12 -34 -20 -14 -14 -14 -24 3 -107 3 -15 1
-34 -6 -42 -7 -8 -9 -17 -5 -21 3 -3 6 -1 6 5 0 7 4 12 9 12 4 0 8 -19 7 -42
l-2 -43 -84 0 -85 0 -3 -31 c-3 -29 -1 -31 25 -27 94 13 95 13 92 -14 0 -5 -8
-6 -17 -5 -9 2 -14 1 -10 -3 3 -3 14 -8 25 -9 13 -3 18 -11 17 -34 -1 -22 3
-32 17 -35 11 -3 19 -1 19 3 0 5 29 7 65 6 64 -2 64 -2 72 29 4 16 6 36 4 43
-1 6 3 12 9 12 6 0 8 5 5 10 -3 6 4 10 17 10 l23 -1 -24 -19 c-13 -11 -18 -20
-13 -20 6 0 14 5 17 10 4 6 11 7 17 4 6 -4 8 -2 4 4 -3 6 -1 14 5 18 6 3 15 0
20 -7 7 -11 9 -11 9 -1 0 9 5 10 19 3 16 -9 19 -6 23 19 2 16 0 31 -6 33 -6 3
-45 4 -86 4 l-75 0 1 54 c1 46 6 93 14 134 6 31 -3 47 -35 61 -19 7 -36 13
-37 13 -2 -1 -12 -4 -22 -6z m85 -316 c-10 -9 -11 -8 -5 6 3 10 9 15 12 12 3
-3 0 -11 -7 -18z"/>
<path d="M1174 1822 c4 -3 14 -7 22 -8 9 -1 13 0 10 4 -4 3 -14 7 -22 8 -9 1
-13 0 -10 -4z"/>
<path d="M1176 1778 c3 -5 10 -6 15 -3 13 9 11 12 -6 12 -8 0 -12 -4 -9 -9z"/>
<path d="M1350 1746 c0 -2 7 -7 16 -10 8 -3 12 -2 9 4 -6 10 -25 14 -25 6z"/>
<path d="M1395 1740 c3 -5 8 -10 11 -10 2 0 4 5 4 10 0 6 -5 10 -11 10 -5 0
-7 -4 -4 -10z"/>
<path d="M1130 1639 c0 -5 5 -7 10 -4 6 3 10 8 10 11 0 2 -4 4 -10 4 -5 0 -10
-5 -10 -11z"/>
<path d="M1635 1641 c-3 -5 -2 -12 3 -15 5 -3 9 1 9 9 0 17 -3 19 -12 6z"/>
<path d="M1095 1620 c-3 -5 -1 -10 4 -10 6 0 11 5 11 10 0 6 -2 10 -4 10 -3 0
-8 -4 -11 -10z"/>
<path d="M770 1601 c0 -6 4 -13 10 -16 6 -3 7 1 4 9 -7 18 -14 21 -14 7z"/>
<path d="M1656 1602 c-3 -5 1 -9 9 -9 8 0 12 4 9 9 -3 4 -7 8 -9 8 -2 0 -6 -4
-9 -8z"/>
<path d="M1739 1593 c-13 -16 -12 -17 4 -4 9 7 17 15 17 17 0 8 -8 3 -21 -13z"/>
<path d="M1770 1601 c0 -6 4 -13 10 -16 6 -3 7 1 4 9 -7 18 -14 21 -14 7z"/>
<path d="M1953 1595 c0 -8 4 -12 9 -9 4 3 8 9 8 15 0 5 -4 9 -8 9 -5 0 -9 -7
-9 -15z"/>
<path d="M1174 1592 c3 -5 0 -13 -6 -15 -9 -4 -10 -6 -1 -6 17 -1 25 16 12 25
-7 4 -9 3 -5 -4z"/>
<path d="M316 1563 c7 -38 40 -85 80 -113 19 -12 32 -25 30 -29 -3 -4 6 -8 20
-9 46 -3 53 -5 48 -14 -3 -4 0 -8 5 -8 6 0 11 4 11 10 0 6 9 6 24 0 16 -6 26
-5 30 1 2 5 3 4 2 -3 -3 -13 -73 -21 -91 -10 -5 4 -19 7 -30 7 -28 2 -78 16
-91 27 -8 5 -14 3 -18 -7 -3 -8 -1 -15 4 -15 6 0 10 -6 10 -14 0 -7 7 -19 15
-26 8 -7 12 -17 8 -24 -3 -6 -3 -8 1 -4 8 7 19 0 60 -37 12 -11 33 -21 47 -22
13 -1 41 -4 61 -6 21 -2 40 1 42 7 3 7 5 6 5 -1 1 -7 9 -13 18 -13 9 0 13 -3
9 -7 -11 -12 -40 -12 -53 -1 -10 8 -13 6 -13 -8 0 -11 -4 -15 -8 -9 -4 6 -21
10 -38 10 -30 0 -30 0 -15 -28 9 -15 24 -30 34 -33 9 -3 17 -9 17 -13 0 -4 6
-8 13 -9 6 0 43 -3 80 -7 40 -3 66 -2 63 4 -5 7 6 12 72 26 6 2 10 -1 6 -6 -3
-5 -12 -9 -20 -9 -8 0 -14 -4 -14 -10 0 -5 -7 -10 -15 -10 -8 0 -15 -5 -15
-10 0 -6 -3 -9 -7 -8 -5 0 -16 -2 -26 -7 -10 -4 -24 -2 -34 6 -12 10 -15 10
-9 2 4 -8 2 -13 -6 -13 -10 0 -10 -2 1 -9 8 -5 10 -14 6 -21 -5 -9 -4 -11 3
-6 6 4 20 2 30 -3 10 -5 30 -11 44 -13 14 -2 34 -10 44 -18 18 -14 18 -14 4 4
-14 18 -13 18 9 11 13 -4 21 -3 18 1 -2 5 10 16 29 25 18 9 31 12 28 8 -3 -5
-1 -9 5 -9 5 0 12 6 14 13 3 7 6 7 6 1 1 -14 -57 -65 -77 -68 -18 -3 -29 -26
-13 -26 6 0 14 -1 19 -2 66 -16 82 -14 103 8 12 13 26 21 30 18 5 -3 9 0 9 5
0 6 5 11 10 11 13 0 -4 -36 -32 -67 -27 -29 -16 -44 24 -33 17 5 34 7 38 5 4
-2 17 7 28 20 12 14 26 25 32 25 5 0 7 7 4 15 -4 10 0 15 12 15 16 0 17 2 4
10 -13 9 -13 10 0 10 13 1 13 2 -1 13 -11 8 -15 25 -14 52 2 22 4 40 5 40 7 0
5 53 -2 63 -6 6 -7 12 -4 12 4 0 2 9 -4 20 -8 14 -8 20 0 20 7 0 5 6 -4 15
-10 10 -14 29 -11 58 1 23 4 43 5 45 1 1 3 5 4 10 8 34 19 51 29 45 9 -5 9 -3
0 8 -10 12 -9 20 3 37 9 13 13 28 11 35 -3 6 -6 3 -7 -8 -1 -18 -1 -19 -11 -2
-5 9 -8 21 -5 25 7 12 -64 36 -96 33 -18 -2 -28 2 -28 11 0 8 -3 9 -8 3 -7
-10 -42 -17 -92 -19 -14 -1 -28 -5 -31 -9 -4 -5 -29 -10 -58 -10 -28 -1 -51
-5 -51 -8 0 -3 -7 -6 -15 -6 -10 0 -14 6 -10 16 4 13 2 12 -9 -1 -13 -18 -67
-23 -129 -11 -24 4 -26 7 -15 21 9 13 7 12 -9 -1 -12 -11 -26 -16 -32 -12 -6
3 -25 8 -43 9 -46 5 -91 17 -105 28 -9 7 -11 2 -7 -19z m649 -33 c4 -6 11 -7
17 -4 7 5 8 2 3 -6 -6 -10 -4 -12 8 -7 8 3 21 -1 27 -9 9 -10 9 -14 1 -14 -6
0 -11 5 -11 11 0 5 -4 8 -10 4 -5 -3 -7 -13 -3 -23 3 -9 -4 -3 -15 14 -11 18
-26 34 -34 37 -8 4 -9 6 -1 6 6 1 15 -4 18 -9z m-38 -15 c0 -8 -4 -12 -9 -9
-5 3 -6 10 -3 15 9 13 12 11 12 -6z m38 -16 c11 -16 1 -19 -13 -3 -7 8 -8 14
-3 14 5 0 13 -5 16 -11z m-41 -25 c3 -8 2 -12 -4 -9 -6 3 -10 10 -10 16 0 14
7 11 14 -7z m-454 -8 c0 -3 -4 -8 -10 -11 -5 -3 -10 -1 -10 4 0 6 5 11 10 11
6 0 10 -2 10 -4z m514 -5 c3 -4 -4 -17 -17 -27 -22 -19 -22 -19 -4 2 9 11 14
24 10 27 -3 4 -4 7 0 7 3 0 8 -4 11 -9z m-377 -67 c-3 -3 -12 -4 -19 -1 -8 3
-5 6 6 6 11 1 17 -2 13 -5z m-133 -57 c4 4 4 -1 0 -10 -3 -10 -7 -17 -8 -15
-1 2 -10 14 -21 28 l-20 25 21 -18 c11 -9 24 -14 28 -10z m36 -8 c0 -5 5 -7
12 -3 7 4 8 3 4 -5 -6 -9 -11 -9 -22 0 -17 14 -18 19 -4 19 6 0 10 -5 10 -11z
m160 -48 c-16 -30 -28 -34 -52 -15 l-23 16 24 -5 c14 -4 30 0 38 9 20 20 26
18 13 -5z m-46 -78 c4 -10 4 -14 0 -10 -4 4 -14 1 -22 -6 -13 -11 -14 -9 -1
11 17 26 15 26 23 5z m171 -82 c-9 -8 -36 -10 -30 -2 2 4 11 8 20 8 8 0 13 -3
10 -6z"/>
<path d="M825 1580 c-3 -6 1 -7 9 -4 18 7 21 14 7 14 -6 0 -13 -4 -16 -10z"/>
<path d="M1390 1585 c0 -13 20 -35 32 -35 4 0 8 5 8 11 0 5 -4 8 -9 4 -6 -3
-14 3 -20 12 -6 10 -11 13 -11 8z"/>
<path d="M1919 1588 c-5 -19 -6 -37 -1 -35 4 1 7 -2 7 -8 0 -13 -26 -14 -42
-2 -7 5 -13 6 -13 1 0 -5 -5 -2 -10 6 -5 8 -10 10 -10 3 0 -6 -8 -10 -17 -8
-10 2 -22 4 -26 4 -5 1 -6 5 -3 9 3 5 -1 9 -9 9 -8 0 -11 -5 -8 -11 4 -6 -4
-2 -17 9 -13 11 -20 14 -16 7 5 -8 1 -11 -16 -8 -13 3 -23 5 -23 6 0 1 -22 3
-50 4 -96 4 -154 -28 -147 -80 2 -12 -2 -25 -9 -30 -9 -5 -11 -1 -6 15 4 15
-1 24 -16 32 -19 8 -20 8 -7 -3 8 -7 15 -22 15 -33 0 -14 6 -19 18 -17 9 2 18
-2 18 -8 3 -20 4 -25 12 -37 4 -6 9 -31 12 -56 3 -35 1 -47 -12 -51 -11 -5
-13 -10 -6 -17 7 -7 6 -22 -2 -47 -7 -20 -11 -45 -9 -57 16 -91 7 -149 -22
-138 -8 3 -14 0 -14 -5 0 -6 8 -9 19 -7 12 2 27 -8 41 -28 22 -30 38 -45 50
-45 3 -1 17 -5 31 -10 36 -14 56 0 35 24 -9 11 -17 24 -18 29 -1 6 -8 16 -15
24 -20 19 -8 26 16 9 12 -8 18 -18 14 -21 -3 -4 1 -7 10 -7 16 0 22 -12 18
-33 -1 -5 3 -6 9 -2 6 3 7 11 4 17 -4 6 7 9 28 7 18 -2 39 0 46 5 6 4 12 4 12
-1 0 -4 4 -1 9 7 7 10 2 19 -17 31 -31 21 -83 64 -64 54 6 -3 12 -2 12 4 0 6
7 8 16 4 13 -5 13 -7 2 -14 -10 -7 -10 -9 2 -10 8 0 24 -3 35 -6 11 -2 34 -5
50 -6 17 -1 36 -6 44 -11 9 -6 12 -5 8 1 -8 13 20 26 36 16 7 -3 9 -3 5 1 -9
11 14 35 27 28 6 -3 7 -2 3 3 -4 4 -2 15 5 24 10 14 10 14 -4 3 -18 -14 -63
-10 -83 7 -7 6 -16 8 -19 4 -4 -3 -7 -1 -7 5 0 7 -5 12 -11 12 -6 0 -17 7 -25
15 -14 13 -14 15 0 15 9 0 16 -5 16 -11 0 -5 4 -8 10 -4 5 3 18 -3 30 -15 11
-11 20 -16 20 -12 0 5 34 8 75 7 41 -1 72 1 70 6 -3 4 3 10 14 14 11 3 22 13
25 21 3 8 10 13 14 10 5 -3 8 5 7 17 -1 15 -8 21 -20 19 -10 -2 -14 1 -10 7 3
7 0 8 -9 5 -9 -3 -13 -11 -9 -18 5 -8 3 -8 -8 0 -8 7 -25 11 -39 10 -14 -1
-34 2 -45 8 -11 6 -23 9 -27 8 -5 -1 -8 5 -8 13 0 12 4 13 19 6 10 -6 21 -7
25 -4 3 3 6 1 6 -5 0 -7 5 -12 11 -12 5 0 7 6 3 13 -5 8 -2 8 9 -2 14 -11 17
-11 17 0 0 10 3 10 11 2 8 -8 23 -8 54 2 31 9 47 9 54 2 8 -8 15 -7 24 2 10
10 8 11 -8 6 -19 -6 -19 -6 -1 7 40 28 78 70 88 99 13 38 9 42 -27 23 -17 -9
-48 -18 -69 -20 -22 -3 -44 -8 -49 -11 -5 -3 -13 1 -18 8 -5 8 -9 9 -9 3 0 -7
-13 -10 -32 -8 -41 5 -48 12 -12 14 65 2 84 4 84 12 0 4 7 5 15 1 9 -3 25 3
35 12 18 17 25 14 21 -8 -1 -5 3 -6 9 -2 6 3 8 11 5 16 -7 11 51 70 60 61 3
-4 3 1 0 10 -4 9 -2 19 4 23 6 3 11 21 11 38 0 21 -3 27 -9 19 -4 -7 -24 -14
-44 -15 -20 -1 -37 -5 -37 -9 0 -5 -3 -7 -7 -6 -5 1 -19 -2 -33 -5 -47 -12
-111 -16 -105 -6 4 5 1 9 -4 9 -6 0 -11 -4 -11 -8 0 -5 -16 -9 -35 -10 -20 -1
-33 2 -31 7 3 5 -1 14 -9 21 -8 7 -12 16 -9 21 3 5 3 9 0 9 -3 0 -6 -1 -7 -2z
m-154 -67 c3 -5 2 -12 -3 -15 -5 -3 -9 1 -9 9 0 17 3 19 12 6z m394 -35 c-22
-20 -22 -20 -6 0 9 11 17 27 18 35 0 11 2 11 6 0 3 -7 -5 -23 -18 -35z m-9 20
c-10 -13 -40 -12 -40 1 0 3 7 3 15 0 8 -4 17 -2 20 3 4 6 9 10 12 10 3 0 0 -6
-7 -14z m-245 -34 c-3 -3 -11 0 -18 7 -9 10 -8 11 6 5 10 -3 15 -9 12 -12z
m220 -140 c-3 -3 -11 0 -18 7 -9 10 -8 11 6 5 10 -3 15 -9 12 -12z"/>
<path d="M719 1568 c15 -21 31 -23 31 -6 0 6 -3 8 -7 5 -3 -4 -13 -1 -22 6
-14 11 -14 10 -2 -5z"/>
<path d="M1372 1560 c0 -14 2 -19 5 -12 2 6 2 18 0 25 -3 6 -5 1 -5 -13z"/>
<path d="M590 1561 c0 -6 4 -12 8 -15 5 -3 9 1 9 9 0 8 -4 15 -9 15 -4 0 -8
-4 -8 -9z"/>
<path d="M1110 1566 c0 -2 7 -7 16 -10 8 -3 12 -2 9 4 -6 10 -25 14 -25 6z"/>
<path d="M1475 1562 c3 -3 1 -10 -5 -16 -6 -8 -2 -12 13 -13 12 0 16 1 9 4 -9
3 -10 9 -3 17 8 9 6 13 -4 13 -8 0 -13 -3 -10 -5z"/>
<path d="M1513 1545 c0 -8 4 -12 9 -9 5 3 6 10 3 15 -9 13 -12 11 -12 -6z"/>
<path d="M1150 1540 c0 -5 7 -7 15 -4 8 4 15 8 15 10 0 2 -7 4 -15 4 -8 0 -15
-4 -15 -10z"/>
<path d="M1224 1534 c-15 -6 -34 -10 -40 -7 -7 2 -15 -1 -20 -8 -5 -8 -3 -10
7 -3 8 4 -7 -12 -33 -38 -26 -25 -44 -48 -41 -51 3 -4 1 -13 -5 -20 -7 -8 -8
-18 -4 -22 4 -5 1 -5 -7 0 -10 6 -12 2 -6 -15 4 -12 8 -60 10 -107 3 -75 2
-84 -13 -79 -15 5 -15 4 1 -8 14 -11 15 -15 4 -25 -8 -6 -18 -7 -22 -3 -5 4
-5 1 -1 -6 4 -7 11 -10 16 -7 4 3 11 -5 14 -18 7 -28 66 -95 67 -76 0 8 4 5 9
-6 5 -11 9 -14 9 -7 1 17 18 15 18 -3 0 -8 -4 -15 -9 -15 -8 0 -6 -16 7 -58 5
-16 10 -20 15 -12 14 22 30 1 20 -25 -5 -13 -7 -33 -5 -44 2 -12 -1 -21 -8
-21 -8 0 -8 -3 -2 -8 11 -8 16 -52 6 -52 -4 0 -11 3 -17 8 -5 4 -3 0 6 -8 10
-10 15 -33 15 -67 0 -28 3 -49 8 -46 4 2 7 -3 7 -11 0 -9 13 -34 29 -57 l30
-40 18 28 c9 15 22 31 27 34 5 4 6 11 3 16 -4 6 2 26 12 47 10 20 16 36 12 36
-11 0 -8 112 3 129 7 11 6 12 -5 6 -11 -7 -12 -6 -2 6 10 12 10 18 0 29 -10
10 -9 11 3 6 8 -4 4 1 -8 11 -18 15 -35 19 -70 15 -41 -3 -57 6 -20 12 7 1 19
5 26 9 6 5 12 4 12 -1 0 -6 9 -8 20 -5 13 3 20 0 20 -8 0 -11 2 -11 10 1 5 8
10 11 10 5 0 -5 5 -3 10 5 7 11 10 11 10 2 0 -8 5 -10 12 -6 8 5 9 2 5 -10 -4
-9 -3 -15 2 -12 10 7 20 66 11 66 -3 0 -6 8 -7 18 -1 10 5 19 12 19 8 0 12 -4
9 -9 -3 -4 2 -5 10 -2 9 3 13 10 10 15 -3 5 2 9 11 9 9 0 13 5 10 10 -3 6 0
10 7 10 9 0 15 14 16 37 2 21 8 41 15 45 8 5 7 8 -5 8 -14 0 -16 10 -14 58 1
31 4 62 7 67 4 6 5 34 4 63 -1 31 3 52 9 52 6 0 4 6 -5 13 -18 13 -41 82 -32
91 3 3 -2 8 -11 12 -9 3 -14 10 -11 14 3 5 0 12 -6 16 -7 4 -9 3 -6 -3 10 -16
-23 -25 -39 -12 -8 6 -14 8 -14 5 0 -4 -10 -1 -22 6 -30 16 -97 17 -134 2z
m120 -36 c-5 -8 -1 -9 12 -5 18 7 18 6 2 -6 -10 -8 -14 -18 -10 -22 4 -5 2 -5
-5 -2 -6 4 -10 15 -8 25 5 23 4 22 11 22 3 0 2 -5 -2 -12z m101 4 c6 -4 11
-13 13 -20 2 -10 -2 -10 -18 0 -20 13 -27 28 -12 28 4 0 12 -4 17 -8z m-54
-45 c-10 -9 -11 -8 -5 6 3 10 9 15 12 12 3 -3 0 -11 -7 -18z m-178 -307 c4 0
11 0 16 0 5 0 12 -7 15 -16 3 -8 2 -12 -4 -9 -6 3 -10 0 -11 -7 0 -7 -4 -4 -9
7 -7 16 -9 16 -9 4 -1 -14 -31 -36 -35 -27 -1 2 -10 13 -20 25 -15 18 -16 25
-6 37 10 13 15 13 33 1 12 -8 25 -14 30 -15z m228 13 c10 -11 10 -14 2 -9 -16
9 -17 -6 -2 -21 7 -7 6 -12 -6 -17 -9 -3 -13 -2 -10 4 3 6 1 10 -4 10 -6 0
-11 -4 -11 -8 0 -5 -7 -9 -15 -9 -8 0 -12 4 -9 9 4 5 -2 8 -11 6 -10 -2 -20 4
-23 12 -3 8 -1 12 3 8 4 -4 21 2 38 13 38 23 32 22 48 2z m-131 -98 c0 -6 -9
-11 -19 -12 -12 -1 -18 3 -15 11 6 16 34 17 34 1z m-55 -25 c3 -6 -1 -7 -9 -4
-18 7 -21 14 -7 14 6 0 13 -4 16 -10z m-9 -28 c1 -7 0 -8 -3 -2 -9 18 -21 11
-16 -10 3 -11 1 -20 -4 -20 -8 0 -10 25 -4 48 2 9 25 -6 27 -16z"/>
<path d="M1163 1153 c9 -2 14 -9 11 -15 -4 -7 -2 -8 5 -4 15 10 4 26 -17 25
-15 -1 -15 -2 1 -6z"/>
<path d="M1396 1537 c3 -10 9 -15 12 -12 3 3 0 11 -7 18 -10 9 -11 8 -5 -6z"/>
<path d="M1130 1531 c0 -6 4 -13 10 -16 6 -3 7 1 4 9 -7 18 -14 21 -14 7z"/>
<path d="M1116 1507 c3 -10 9 -15 12 -12 3 3 0 11 -7 18 -10 9 -11 8 -5 -6z"/>
<path d="M1100 1490 c6 -11 13 -20 16 -20 2 0 0 9 -6 20 -6 11 -13 20 -16 20
-2 0 0 -9 6 -20z"/>
<path d="M1090 1460 c0 -5 5 -10 11 -10 5 0 7 5 4 10 -3 6 -8 10 -11 10 -2 0
-4 -4 -4 -10z"/>
<path d="M1495 1430 c-3 -6 1 -7 9 -4 18 7 21 14 7 14 -6 0 -13 -4 -16 -10z"/>
<path d="M395 1420 c3 -5 8 -10 11 -10 2 0 4 5 4 10 0 6 -5 10 -11 10 -5 0 -7
-4 -4 -10z"/>
<path d="M1070 1420 c0 -5 5 -10 11 -10 5 0 7 5 4 10 -3 6 -8 10 -11 10 -2 0
-4 -4 -4 -10z"/>
<path d="M1052 1400 c0 -14 2 -19 5 -12 2 6 2 18 0 25 -3 6 -5 1 -5 -13z"/>
<path d="M1510 1416 c0 -2 8 -10 18 -17 15 -13 16 -12 3 4 -13 16 -21 21 -21
13z"/>
<path d="M1508 1373 c7 -3 16 -2 19 1 4 3 -2 6 -13 5 -11 0 -14 -3 -6 -6z"/>
<path d="M1516 1343 c-9 -22 5 -35 24 -22 12 9 12 10 -3 5 -15 -5 -17 -2 -12
14 8 24 0 27 -9 3z"/>
<path d="M1035 1340 c3 -5 8 -10 11 -10 2 0 4 5 4 10 0 6 -5 10 -11 10 -5 0
-7 -4 -4 -10z"/>
<path d="M1059 1323 c-1 -5 -1 -11 0 -15 2 -12 -17 -10 -22 2 -3 6 -4 5 -3 -2
4 -19 29 -16 32 5 1 9 0 17 -2 17 -2 0 -5 -3 -5 -7z"/>
<path d="M1516 1277 c3 -10 9 -15 12 -12 3 3 0 11 -7 18 -10 9 -11 8 -5 -6z"/>
<path d="M1055 1261 c-3 -5 0 -13 6 -17 7 -4 9 -3 5 4 -3 5 0 13 6 15 9 4 10
6 1 6 -6 1 -14 -3 -18 -8z"/>
<path d="M1495 1260 c3 -5 8 -10 11 -10 2 0 4 5 4 10 0 6 -5 10 -11 10 -5 0
-7 -4 -4 -10z"/>
<path d="M1497 1219 c7 -7 15 -10 18 -7 3 3 -2 9 -12 12 -14 6 -15 5 -6 -5z"/>
<path d="M1500 1120 c0 -5 5 -10 10 -10 6 0 10 5 10 10 0 6 -4 10 -10 10 -5 0
-10 -4 -10 -10z"/>
<path d="M1060 1080 c8 -5 22 -9 30 -9 10 0 8 3 -5 9 -27 12 -43 12 -25 0z"/>
<path d="M1508 1083 c7 -3 16 -2 19 1 4 3 -2 6 -13 5 -11 0 -14 -3 -6 -6z"/>
<path d="M796 1053 c-6 -14 -5 -15 5 -6 7 7 10 15 7 18 -3 3 -9 -2 -12 -12z"/>
<path d="M1100 1053 c0 -7 5 -15 10 -18 6 -4 8 -11 5 -16 -4 -5 -1 -9 4 -9 15
0 13 11 -4 34 -8 11 -15 15 -15 9z"/>
<path d="M915 1021 c-3 -5 -2 -12 3 -15 5 -3 9 1 9 9 0 17 -3 19 -12 6z"/>
<path d="M1468 1023 c6 -2 9 -10 6 -15 -4 -7 -2 -8 5 -4 13 9 5 26 -12 25 -9
0 -8 -2 1 -6z"/>
<path d="M1497 995 c-4 -8 -3 -16 1 -19 4 -3 9 4 9 15 2 23 -3 25 -10 4z"/>
<path d="M1115 991 c-3 -5 -2 -12 3 -15 5 -3 9 1 9 9 0 17 -3 19 -12 6z"/>
<path d="M830 979 c0 -5 5 -7 10 -4 6 3 10 8 10 11 0 2 -4 4 -10 4 -5 0 -10
-5 -10 -11z"/>
<path d="M1735 980 c3 -5 8 -10 11 -10 2 0 4 5 4 10 0 6 -5 10 -11 10 -5 0 -7
-4 -4 -10z"/>
<path d="M1387 899 c7 -7 15 -10 18 -7 3 3 -2 9 -12 12 -14 6 -15 5 -6 -5z"/>
<path d="M1136 887 c3 -10 9 -15 12 -12 3 3 0 11 -7 18 -10 9 -11 8 -5 -6z"/>
<path d="M1375 780 c-3 -5 -1 -10 4 -10 6 0 11 5 11 10 0 6 -2 10 -4 10 -3 0
-8 -4 -11 -10z"/>
<path d="M1395 720 c-3 -5 -1 -10 4 -10 6 0 11 5 11 10 0 6 -2 10 -4 10 -3 0
-8 -4 -11 -10z"/>
</g>
</svg>
